<svg xmlns="http://www.w3.org/2000/svg" width="64" height="64" viewBox="0 0 64 64" role="img" aria-labelledby="title desc"><title id="title">Assemble workshop emblem</title><desc id="desc">Original layered vector artwork representing assemble.</desc><rect x="1" y="1" width="62" height="62" rx="14" fill="#21162F" stroke="#5B4073"/><g color="#DEC6F5" stroke="#DEC6F5" stroke-width="1.8" stroke-linecap="round" stroke-linejoin="round" fill="none"><path d="M10 33L24 26L38 33L24 41Z M24 41V53L10 45V33 M24 53L38 45V33" fill="currentColor" fill-opacity=".16"/><path d="M28 33L42 26L56 33L42 41Z M42 41V53L28 45V33 M42 53L56 45V33" fill="currentColor" fill-opacity=".3"/><path d="M20 13L34 6L48 13L34 21Z M34 21V33L20 25V13 M34 33L48 25V13" fill="currentColor" fill-opacity=".5"/><path d="M34 21V33"/></g></svg>